<svg width="556" height="518" viewBox="0 0 556 518" fill="none" xmlns="http://www.w3.org/2000/svg">
<path d="M555.675 0L555.675 2.1396C555.675 73.9366 497.472 132.14 425.675 132.14L356.281 132.14C356.281 132.14 356.281 127.395 356.281 86.8954C356.281 33.3954 308.407 -9.88931e-06 308.407 -9.88931e-06L555.675 0Z" fill="url(#paint0_linear)"/>
<path d="M240.855 0.000976563C293.322 0.000976563 335.855 42.5339 335.855 95.001V396.42C335.855 463.317 281.624 517.547 214.727 517.547V159.141C214.727 144.229 202.638 132.141 187.727 132.141H0V130.001C0 58.2039 58.203 0.000976563 130 0.000976563L240.855 0.000976563Z" fill="url(#paint1_linear)"/>
<defs>
<linearGradient id="paint0_linear" x1="561.593" y1="-1.62672e-06" x2="363.384" y2="71.5756" gradientUnits="userSpaceOnUse">
<stop stop-color="#B55B01"/>
<stop offset="1" stop-color="#B50104"/>
</linearGradient>
<linearGradient id="paint1_linear" x1="176.186" y1="-132.139" x2="176.186" y2="853.402" gradientUnits="userSpaceOnUse">
<stop stop-color="#01C2BB"/>
<stop offset="1" stop-color="#007C78"/>
</linearGradient>
</defs>
</svg>
